<?xml version="1.0" encoding="UTF-8"?>
<svg width="100pt" height="100pt" version="1.1" viewBox="0 0 100 100" xmlns="http://www.w3.org/2000/svg">
 <path d="m65.734 32.469c9.375-5.0234 16.742-4.6602 28.379-6.0625-10.992 7.2695-15.949 7.4453-21.719 16.277 10.629 0.33594 16.832 4.3359 27.605 8.9414-13.156 0.80078-17.535-1.5234-26.949 3.2383 9.0391 5.6055 12.41 12.168 19.438 21.547-11.793-5.8828-14.422-10.09-24.957-10.672 5.0234 9.375 4.6602 16.742 6.0625 28.379-7.2695-10.992-7.4453-15.949-16.277-21.719-0.33594 10.629-4.3359 16.832-8.9414 27.605-0.80078-13.156 1.5234-17.535-3.2344-26.949-5.6055 9.0352-12.168 12.41-21.547 19.438 5.8867-11.793 10.09-14.426 10.672-24.957-9.375 5.0234-16.742 4.6602-28.379 6.0625 10.992-7.2695 15.949-7.4453 21.719-16.277-10.629-0.33594-16.832-4.3359-27.605-8.9414 13.156-0.80078 17.535 1.5234 26.949-3.2383-9.0391-5.6055-12.41-12.168-19.438-21.547 11.793 5.8867 14.422 10.09 24.957 10.672-5.0234-9.375-4.6602-16.742-6.0625-28.379 7.2695 10.992 7.4453 15.949 16.277 21.719 0.33594-10.629 4.3359-16.828 8.9414-27.605 0.80078 13.156-1.5234 17.535 3.2344 26.949 5.6055-9.0352 12.168-12.406 21.547-19.438-5.8867 11.793-10.09 14.426-10.672 24.957z" fill-rule="evenodd"/>
</svg>
